<?xml version="1.0" encoding="utf-8" standalone="no"?>
<!DOCTYPE svg PUBLIC "-//W3C//DTD SVG 1.1//EN"
  "http://www.w3.org/Graphics/SVG/1.1/DTD/svg11.dtd">
<svg xmlns:xlink="http://www.w3.org/1999/xlink" width="280pt" height="300pt" viewBox="0 0 280 300" xmlns="http://www.w3.org/2000/svg" version="1.1">
 <metadata>
  <rdf:RDF xmlns:dc="http://purl.org/dc/elements/1.1/" xmlns:cc="http://creativecommons.org/ns#" xmlns:rdf="http://www.w3.org/1999/02/22-rdf-syntax-ns#">
   <cc:Work>
    <dc:type rdf:resource="http://purl.org/dc/dcmitype/StillImage"/>
    <dc:date>2026-03-30T13:29:51.586570</dc:date>
    <dc:format>image/svg+xml</dc:format>
    <dc:creator>
     <cc:Agent>
      <dc:title>Matplotlib v3.10.8, https://matplotlib.org/</dc:title>
     </cc:Agent>
    </dc:creator>
   </cc:Work>
  </rdf:RDF>
 </metadata>
 <defs>
  <style type="text/css">*{stroke-linejoin: round; stroke-linecap: butt}</style>
 </defs>
 <g id="figure_1">
  <g id="patch_1">
   <path d="M 0 300 
L 280 300 
L 280 0 
L 0 0 
z
" style="fill: #ffffff"/>
  </g>
  <g id="axes_1">
   <g id="patch_2">
    <path d="M 34.126158 272.12 
L 269.2 272.12 
L 269.2 14.234247 
L 34.126158 14.234247 
z
" style="fill: #ffffff"/>
   </g>
   <g id="line2d_1">
    <path d="M 44.811333 203.849832 
L 75.340403 189.975597 
L 105.869474 180.393698 
L 136.398544 174.839499 
L 166.927614 167.728086 
L 197.456685 159.683074 
L 227.985755 153.653353 
L 258.514825 144.2657 
" clip-path="url(#pca625b54e2)" style="fill: none; stroke: #f07167; stroke-width: 2; stroke-linecap: square"/>
   </g>
   <g id="FillBetweenPolyCollection_1">
    <defs>
     <path id="m668760117b" d="M 44.811333 -94.684385 
L 44.811333 -93.243484 
L 75.340403 -107.821116 
L 105.869474 -119.838724 
L 136.398544 -122.365848 
L 166.927614 -126.790617 
L 197.456685 -135.639401 
L 227.985755 -140.731403 
L 258.514825 -152.767149 
L 258.514825 -171.163978 
L 258.514825 -171.163978 
L 227.985755 -153.151712 
L 197.456685 -147.839867 
L 166.927614 -139.732495 
L 136.398544 -129.417071 
L 105.869474 -124.30116 
L 75.340403 -113.307321 
L 44.811333 -94.684385 
z
" style="stroke: #00afb9; stroke-opacity: 0.18"/>
    </defs>
    <g clip-path="url(#pca625b54e2)">
     <use xlink:href="#m668760117b" x="0" y="300" style="fill: #00afb9; fill-opacity: 0.18; stroke: #00afb9; stroke-opacity: 0.18"/>
    </g>
   </g>
   <g id="FillBetweenPolyCollection_2">
    <defs>
     <path id="mcdb1142611" d="M 44.811333 -98.149956 
L 44.811333 -92.366157 
L 75.340403 -105.912378 
L 105.869474 -113.539423 
L 136.398544 -118.555713 
L 166.927614 -123.52226 
L 197.456685 -131.381617 
L 227.985755 -136.720162 
L 258.514825 -146.744329 
L 258.514825 -182.720516 
L 258.514825 -182.720516 
L 227.985755 -171.215645 
L 197.456685 -159.540216 
L 166.927614 -143.180487 
L 136.398544 -131.958602 
L 105.869474 -125.891996 
L 75.340403 -114.885983 
L 44.811333 -98.149956 
z
" style="stroke: #fed9b7; stroke-opacity: 0.18"/>
    </defs>
    <g clip-path="url(#pca625b54e2)">
     <use xlink:href="#mcdb1142611" x="0" y="300" style="fill: #fed9b7; fill-opacity: 0.18; stroke: #fed9b7; stroke-opacity: 0.18"/>
    </g>
   </g>
   <g id="FillBetweenPolyCollection_3">
    <defs>
     <path id="m8806bffc76" d="M 44.811333 -98.92922 
L 44.811333 -92.973386 
L 75.340403 -106.710888 
L 105.869474 -114.306094 
L 136.398544 -119.612624 
L 166.927614 -125.392027 
L 197.456685 -130.515446 
L 227.985755 -137.447547 
L 258.514825 -145.295096 
L 258.514825 -168.661471 
L 258.514825 -168.661471 
L 227.985755 -153.59437 
L 197.456685 -147.147436 
L 166.927614 -137.518241 
L 136.398544 -129.596664 
L 105.869474 -123.882951 
L 75.340403 -112.907489 
L 44.811333 -98.92922 
z
" style="stroke: #f07167; stroke-opacity: 0.18"/>
    </defs>
    <g clip-path="url(#pca625b54e2)">
     <use xlink:href="#m8806bffc76" x="0" y="300" style="fill: #f07167; fill-opacity: 0.18; stroke: #f07167; stroke-opacity: 0.18"/>
    </g>
   </g>
   <g id="matplotlib.axis_1">
    <g id="xtick_1">
     <g id="line2d_2">
      <path d="M 75.340403 272.12 
L 75.340403 14.234247 
" clip-path="url(#pca625b54e2)" style="fill: none; stroke-dasharray: 2.22,0.96; stroke-dashoffset: 0; stroke: #b0b0b0; stroke-opacity: 0.35; stroke-width: 0.6"/>
     </g>
     <g id="line2d_3">
      <defs>
       <path id="m4b8c1741c0" d="M 0 0 
L 0 3.5 
" style="stroke: #000000; stroke-width: 0.8"/>
      </defs>
      <g>
       <use xlink:href="#m4b8c1741c0" x="75.340403" y="272.12" style="stroke: #000000; stroke-width: 0.8"/>
      </g>
     </g>
     <g id="text_1">
      <!-- 8 -->
      <g transform="translate(72.559934 286.277812) scale(0.1 -0.1)">
       <defs>
        <path id="ArialMT-38" d="M 1131 2484 
Q 781 2613 612 2850 
Q 444 3088 444 3419 
Q 444 3919 803 4259 
Q 1163 4600 1759 4600 
Q 2359 4600 2725 4251 
Q 3091 3903 3091 3403 
Q 3091 3084 2923 2848 
Q 2756 2613 2416 2484 
Q 2838 2347 3058 2040 
Q 3278 1734 3278 1309 
Q 3278 722 2862 322 
Q 2447 -78 1769 -78 
Q 1091 -78 675 323 
Q 259 725 259 1325 
Q 259 1772 486 2073 
Q 713 2375 1131 2484 
z
M 1019 3438 
Q 1019 3113 1228 2906 
Q 1438 2700 1772 2700 
Q 2097 2700 2305 2904 
Q 2513 3109 2513 3406 
Q 2513 3716 2298 3927 
Q 2084 4138 1766 4138 
Q 1444 4138 1231 3931 
Q 1019 3725 1019 3438 
z
M 838 1322 
Q 838 1081 952 856 
Q 1066 631 1291 507 
Q 1516 384 1775 384 
Q 2178 384 2440 643 
Q 2703 903 2703 1303 
Q 2703 1709 2433 1975 
Q 2163 2241 1756 2241 
Q 1359 2241 1098 1978 
Q 838 1716 838 1322 
z
" transform="scale(0.015625)"/>
       </defs>
       <use xlink:href="#ArialMT-38"/>
      </g>
     </g>
    </g>
    <g id="xtick_2">
     <g id="line2d_4">
      <path d="M 136.398544 272.12 
L 136.398544 14.234247 
" clip-path="url(#pca625b54e2)" style="fill: none; stroke-dasharray: 2.22,0.96; stroke-dashoffset: 0; stroke: #b0b0b0; stroke-opacity: 0.35; stroke-width: 0.6"/>
     </g>
     <g id="line2d_5">
      <g>
       <use xlink:href="#m4b8c1741c0" x="136.398544" y="272.12" style="stroke: #000000; stroke-width: 0.8"/>
      </g>
     </g>
     <g id="text_2">
      <!-- 10 -->
      <g transform="translate(130.837606 286.277812) scale(0.1 -0.1)">
       <defs>
        <path id="ArialMT-31" d="M 2384 0 
L 1822 0 
L 1822 3584 
Q 1619 3391 1289 3197 
Q 959 3003 697 2906 
L 697 3450 
Q 1169 3672 1522 3987 
Q 1875 4303 2022 4600 
L 2384 4600 
L 2384 0 
z
" transform="scale(0.015625)"/>
        <path id="ArialMT-30" d="M 266 2259 
Q 266 3072 433 3567 
Q 600 4063 929 4331 
Q 1259 4600 1759 4600 
Q 2128 4600 2406 4451 
Q 2684 4303 2865 4023 
Q 3047 3744 3150 3342 
Q 3253 2941 3253 2259 
Q 3253 1453 3087 958 
Q 2922 463 2592 192 
Q 2263 -78 1759 -78 
Q 1097 -78 719 397 
Q 266 969 266 2259 
z
M 844 2259 
Q 844 1131 1108 757 
Q 1372 384 1759 384 
Q 2147 384 2411 759 
Q 2675 1134 2675 2259 
Q 2675 3391 2411 3762 
Q 2147 4134 1753 4134 
Q 1366 4134 1134 3806 
Q 844 3388 844 2259 
z
" transform="scale(0.015625)"/>
       </defs>
       <use xlink:href="#ArialMT-31"/>
       <use xlink:href="#ArialMT-30" transform="translate(55.615234 0)"/>
      </g>
     </g>
    </g>
    <g id="xtick_3">
     <g id="line2d_6">
      <path d="M 197.456685 272.12 
L 197.456685 14.234247 
" clip-path="url(#pca625b54e2)" style="fill: none; stroke-dasharray: 2.22,0.96; stroke-dashoffset: 0; stroke: #b0b0b0; stroke-opacity: 0.35; stroke-width: 0.6"/>
     </g>
     <g id="line2d_7">
      <g>
       <use xlink:href="#m4b8c1741c0" x="197.456685" y="272.12" style="stroke: #000000; stroke-width: 0.8"/>
      </g>
     </g>
     <g id="text_3">
      <!-- 12 -->
      <g transform="translate(191.895747 286.277812) scale(0.1 -0.1)">
       <defs>
        <path id="ArialMT-32" d="M 3222 541 
L 3222 0 
L 194 0 
Q 188 203 259 391 
Q 375 700 629 1000 
Q 884 1300 1366 1694 
Q 2113 2306 2375 2664 
Q 2638 3022 2638 3341 
Q 2638 3675 2398 3904 
Q 2159 4134 1775 4134 
Q 1369 4134 1125 3890 
Q 881 3647 878 3216 
L 300 3275 
Q 359 3922 746 4261 
Q 1134 4600 1788 4600 
Q 2447 4600 2831 4234 
Q 3216 3869 3216 3328 
Q 3216 3053 3103 2787 
Q 2991 2522 2730 2228 
Q 2469 1934 1863 1422 
Q 1356 997 1212 845 
Q 1069 694 975 541 
L 3222 541 
z
" transform="scale(0.015625)"/>
       </defs>
       <use xlink:href="#ArialMT-31"/>
       <use xlink:href="#ArialMT-32" transform="translate(55.615234 0)"/>
      </g>
     </g>
    </g>
    <g id="xtick_4">
     <g id="line2d_8">
      <path d="M 258.514825 272.12 
L 258.514825 14.234247 
" clip-path="url(#pca625b54e2)" style="fill: none; stroke-dasharray: 2.22,0.96; stroke-dashoffset: 0; stroke: #b0b0b0; stroke-opacity: 0.35; stroke-width: 0.6"/>
     </g>
     <g id="line2d_9">
      <g>
       <use xlink:href="#m4b8c1741c0" x="258.514825" y="272.12" style="stroke: #000000; stroke-width: 0.8"/>
      </g>
     </g>
     <g id="text_4">
      <!-- 14 -->
      <g transform="translate(252.953888 286.277812) scale(0.1 -0.1)">
       <defs>
        <path id="ArialMT-34" d="M 2069 0 
L 2069 1097 
L 81 1097 
L 81 1613 
L 2172 4581 
L 2631 4581 
L 2631 1613 
L 3250 1613 
L 3250 1097 
L 2631 1097 
L 2631 0 
L 2069 0 
z
M 2069 1613 
L 2069 3678 
L 634 1613 
L 2069 1613 
z
" transform="scale(0.015625)"/>
       </defs>
       <use xlink:href="#ArialMT-31"/>
       <use xlink:href="#ArialMT-34" transform="translate(55.615234 0)"/>
      </g>
     </g>
    </g>
   </g>
   <g id="matplotlib.axis_2">
    <g id="ytick_1">
     <g id="line2d_10">
      <path d="M 34.126158 222.534569 
L 269.2 222.534569 
" clip-path="url(#pca625b54e2)" style="fill: none; stroke-dasharray: 2.22,0.96; stroke-dashoffset: 0; stroke: #b0b0b0; stroke-opacity: 0.35; stroke-width: 0.6"/>
     </g>
     <g id="line2d_11">
      <defs>
       <path id="m4cc8e21215" d="M 0 0 
L -3.5 0 
" style="stroke: #000000; stroke-width: 0.8"/>
      </defs>
      <g>
       <use xlink:href="#m4cc8e21215" x="34.126158" y="222.534569" style="stroke: #000000; stroke-width: 0.8"/>
      </g>
     </g>
     <g id="text_5">
      <!-- $\mathdefault{10^{0}}$ -->
      <g transform="translate(11.426158 227.690819) scale(0.1 -0.1)">
       <use xlink:href="#ArialMT-31" transform="translate(0 0.99375)"/>
       <use xlink:href="#ArialMT-30" transform="translate(55.615234 0.99375)"/>
       <use xlink:href="#ArialMT-30" transform="translate(112.972813 70.6875) scale(0.7)"/>
      </g>
     </g>
    </g>
    <g id="ytick_2">
     <g id="line2d_12">
      <path d="M 34.126158 171.347698 
L 269.2 171.347698 
" clip-path="url(#pca625b54e2)" style="fill: none; stroke-dasharray: 2.22,0.96; stroke-dashoffset: 0; stroke: #b0b0b0; stroke-opacity: 0.35; stroke-width: 0.6"/>
     </g>
     <g id="line2d_13">
      <g>
       <use xlink:href="#m4cc8e21215" x="34.126158" y="171.347698" style="stroke: #000000; stroke-width: 0.8"/>
      </g>
     </g>
     <g id="text_6">
      <!-- $\mathdefault{10^{1}}$ -->
      <g transform="translate(11.426158 176.503948) scale(0.1 -0.1)">
       <use xlink:href="#ArialMT-31" transform="translate(0 0.99375)"/>
       <use xlink:href="#ArialMT-30" transform="translate(55.615234 0.99375)"/>
       <use xlink:href="#ArialMT-31" transform="translate(112.972813 70.6875) scale(0.7)"/>
      </g>
     </g>
    </g>
    <g id="ytick_3">
     <g id="line2d_14">
      <path d="M 34.126158 120.160828 
L 269.2 120.160828 
" clip-path="url(#pca625b54e2)" style="fill: none; stroke-dasharray: 2.22,0.96; stroke-dashoffset: 0; stroke: #b0b0b0; stroke-opacity: 0.35; stroke-width: 0.6"/>
     </g>
     <g id="line2d_15">
      <g>
       <use xlink:href="#m4cc8e21215" x="34.126158" y="120.160828" style="stroke: #000000; stroke-width: 0.8"/>
      </g>
     </g>
     <g id="text_7">
      <!-- $\mathdefault{10^{2}}$ -->
      <g transform="translate(11.426158 125.317078) scale(0.1 -0.1)">
       <use xlink:href="#ArialMT-31" transform="translate(0 0.99375)"/>
       <use xlink:href="#ArialMT-30" transform="translate(55.615234 0.99375)"/>
       <use xlink:href="#ArialMT-32" transform="translate(112.972813 70.6875) scale(0.7)"/>
      </g>
     </g>
    </g>
    <g id="ytick_4">
     <g id="line2d_16">
      <path d="M 34.126158 68.973958 
L 269.2 68.973958 
" clip-path="url(#pca625b54e2)" style="fill: none; stroke-dasharray: 2.22,0.96; stroke-dashoffset: 0; stroke: #b0b0b0; stroke-opacity: 0.35; stroke-width: 0.6"/>
     </g>
     <g id="line2d_17">
      <g>
       <use xlink:href="#m4cc8e21215" x="34.126158" y="68.973958" style="stroke: #000000; stroke-width: 0.8"/>
      </g>
     </g>
     <g id="text_8">
      <!-- $\mathdefault{10^{3}}$ -->
      <g transform="translate(11.426158 74.130208) scale(0.1 -0.1)">
       <defs>
        <path id="ArialMT-33" d="M 269 1209 
L 831 1284 
Q 928 806 1161 595 
Q 1394 384 1728 384 
Q 2125 384 2398 659 
Q 2672 934 2672 1341 
Q 2672 1728 2419 1979 
Q 2166 2231 1775 2231 
Q 1616 2231 1378 2169 
L 1441 2663 
Q 1497 2656 1531 2656 
Q 1891 2656 2178 2843 
Q 2466 3031 2466 3422 
Q 2466 3731 2256 3934 
Q 2047 4138 1716 4138 
Q 1388 4138 1169 3931 
Q 950 3725 888 3313 
L 325 3413 
Q 428 3978 793 4289 
Q 1159 4600 1703 4600 
Q 2078 4600 2393 4439 
Q 2709 4278 2876 4000 
Q 3044 3722 3044 3409 
Q 3044 3113 2884 2869 
Q 2725 2625 2413 2481 
Q 2819 2388 3044 2092 
Q 3269 1797 3269 1353 
Q 3269 753 2831 336 
Q 2394 -81 1725 -81 
Q 1122 -81 723 278 
Q 325 638 269 1209 
z
" transform="scale(0.015625)"/>
       </defs>
       <use xlink:href="#ArialMT-31" transform="translate(0 0.99375)"/>
       <use xlink:href="#ArialMT-30" transform="translate(55.615234 0.99375)"/>
       <use xlink:href="#ArialMT-33" transform="translate(112.972813 70.6875) scale(0.7)"/>
      </g>
     </g>
    </g>
    <g id="ytick_5">
     <g id="line2d_18">
      <path d="M 34.126158 17.787087 
L 269.2 17.787087 
" clip-path="url(#pca625b54e2)" style="fill: none; stroke-dasharray: 2.22,0.96; stroke-dashoffset: 0; stroke: #b0b0b0; stroke-opacity: 0.35; stroke-width: 0.6"/>
     </g>
     <g id="line2d_19">
      <g>
       <use xlink:href="#m4cc8e21215" x="34.126158" y="17.787087" style="stroke: #000000; stroke-width: 0.8"/>
      </g>
     </g>
     <g id="text_9">
      <!-- $\mathdefault{10^{4}}$ -->
      <g transform="translate(11.426158 22.893337) scale(0.1 -0.1)">
       <use xlink:href="#ArialMT-31" transform="translate(0 0.201563)"/>
       <use xlink:href="#ArialMT-30" transform="translate(55.615234 0.201563)"/>
       <use xlink:href="#ArialMT-34" transform="translate(112.972813 69.895313) scale(0.7)"/>
      </g>
     </g>
    </g>
    <g id="ytick_6">
     <g id="line2d_20">
      <path d="M 34.126158 258.312656 
L 269.2 258.312656 
" clip-path="url(#pca625b54e2)" style="fill: none; stroke-dasharray: 2.22,0.96; stroke-dashoffset: 0; stroke: #b0b0b0; stroke-opacity: 0.35; stroke-width: 0.6"/>
     </g>
     <g id="line2d_21">
      <defs>
       <path id="m3907f962ad" d="M 0 0 
L -2 0 
" style="stroke: #000000; stroke-width: 0.6"/>
      </defs>
      <g>
       <use xlink:href="#m3907f962ad" x="34.126158" y="258.312656" style="stroke: #000000; stroke-width: 0.6"/>
      </g>
     </g>
    </g>
    <g id="ytick_7">
     <g id="line2d_22">
      <path d="M 34.126158 249.299095 
L 269.2 249.299095 
" clip-path="url(#pca625b54e2)" style="fill: none; stroke-dasharray: 2.22,0.96; stroke-dashoffset: 0; stroke: #b0b0b0; stroke-opacity: 0.35; stroke-width: 0.6"/>
     </g>
     <g id="line2d_23">
      <g>
       <use xlink:href="#m3907f962ad" x="34.126158" y="249.299095" style="stroke: #000000; stroke-width: 0.6"/>
      </g>
     </g>
    </g>
    <g id="ytick_8">
     <g id="line2d_24">
      <path d="M 34.126158 242.903872 
L 269.2 242.903872 
" clip-path="url(#pca625b54e2)" style="fill: none; stroke-dasharray: 2.22,0.96; stroke-dashoffset: 0; stroke: #b0b0b0; stroke-opacity: 0.35; stroke-width: 0.6"/>
     </g>
     <g id="line2d_25">
      <g>
       <use xlink:href="#m3907f962ad" x="34.126158" y="242.903872" style="stroke: #000000; stroke-width: 0.6"/>
      </g>
     </g>
    </g>
    <g id="ytick_9">
     <g id="line2d_26">
      <path d="M 34.126158 237.943352 
L 269.2 237.943352 
" clip-path="url(#pca625b54e2)" style="fill: none; stroke-dasharray: 2.22,0.96; stroke-dashoffset: 0; stroke: #b0b0b0; stroke-opacity: 0.35; stroke-width: 0.6"/>
     </g>
     <g id="line2d_27">
      <g>
       <use xlink:href="#m3907f962ad" x="34.126158" y="237.943352" style="stroke: #000000; stroke-width: 0.6"/>
      </g>
     </g>
    </g>
    <g id="ytick_10">
     <g id="line2d_28">
      <path d="M 34.126158 233.890312 
L 269.2 233.890312 
" clip-path="url(#pca625b54e2)" style="fill: none; stroke-dasharray: 2.22,0.96; stroke-dashoffset: 0; stroke: #b0b0b0; stroke-opacity: 0.35; stroke-width: 0.6"/>
     </g>
     <g id="line2d_29">
      <g>
       <use xlink:href="#m3907f962ad" x="34.126158" y="233.890312" style="stroke: #000000; stroke-width: 0.6"/>
      </g>
     </g>
    </g>
    <g id="ytick_11">
     <g id="line2d_30">
      <path d="M 34.126158 230.463515 
L 269.2 230.463515 
" clip-path="url(#pca625b54e2)" style="fill: none; stroke-dasharray: 2.22,0.96; stroke-dashoffset: 0; stroke: #b0b0b0; stroke-opacity: 0.35; stroke-width: 0.6"/>
     </g>
     <g id="line2d_31">
      <g>
       <use xlink:href="#m3907f962ad" x="34.126158" y="230.463515" style="stroke: #000000; stroke-width: 0.6"/>
      </g>
     </g>
    </g>
    <g id="ytick_12">
     <g id="line2d_32">
      <path d="M 34.126158 227.495089 
L 269.2 227.495089 
" clip-path="url(#pca625b54e2)" style="fill: none; stroke-dasharray: 2.22,0.96; stroke-dashoffset: 0; stroke: #b0b0b0; stroke-opacity: 0.35; stroke-width: 0.6"/>
     </g>
     <g id="line2d_33">
      <g>
       <use xlink:href="#m3907f962ad" x="34.126158" y="227.495089" style="stroke: #000000; stroke-width: 0.6"/>
      </g>
     </g>
    </g>
    <g id="ytick_13">
     <g id="line2d_34">
      <path d="M 34.126158 224.876751 
L 269.2 224.876751 
" clip-path="url(#pca625b54e2)" style="fill: none; stroke-dasharray: 2.22,0.96; stroke-dashoffset: 0; stroke: #b0b0b0; stroke-opacity: 0.35; stroke-width: 0.6"/>
     </g>
     <g id="line2d_35">
      <g>
       <use xlink:href="#m3907f962ad" x="34.126158" y="224.876751" style="stroke: #000000; stroke-width: 0.6"/>
      </g>
     </g>
    </g>
    <g id="ytick_14">
     <g id="line2d_36">
      <path d="M 34.126158 207.125785 
L 269.2 207.125785 
" clip-path="url(#pca625b54e2)" style="fill: none; stroke-dasharray: 2.22,0.96; stroke-dashoffset: 0; stroke: #b0b0b0; stroke-opacity: 0.35; stroke-width: 0.6"/>
     </g>
     <g id="line2d_37">
      <g>
       <use xlink:href="#m3907f962ad" x="34.126158" y="207.125785" style="stroke: #000000; stroke-width: 0.6"/>
      </g>
     </g>
    </g>
    <g id="ytick_15">
     <g id="line2d_38">
      <path d="M 34.126158 198.112225 
L 269.2 198.112225 
" clip-path="url(#pca625b54e2)" style="fill: none; stroke-dasharray: 2.22,0.96; stroke-dashoffset: 0; stroke: #b0b0b0; stroke-opacity: 0.35; stroke-width: 0.6"/>
     </g>
     <g id="line2d_39">
      <g>
       <use xlink:href="#m3907f962ad" x="34.126158" y="198.112225" style="stroke: #000000; stroke-width: 0.6"/>
      </g>
     </g>
    </g>
    <g id="ytick_16">
     <g id="line2d_40">
      <path d="M 34.126158 191.717002 
L 269.2 191.717002 
" clip-path="url(#pca625b54e2)" style="fill: none; stroke-dasharray: 2.22,0.96; stroke-dashoffset: 0; stroke: #b0b0b0; stroke-opacity: 0.35; stroke-width: 0.6"/>
     </g>
     <g id="line2d_41">
      <g>
       <use xlink:href="#m3907f962ad" x="34.126158" y="191.717002" style="stroke: #000000; stroke-width: 0.6"/>
      </g>
     </g>
    </g>
    <g id="ytick_17">
     <g id="line2d_42">
      <path d="M 34.126158 186.756482 
L 269.2 186.756482 
" clip-path="url(#pca625b54e2)" style="fill: none; stroke-dasharray: 2.22,0.96; stroke-dashoffset: 0; stroke: #b0b0b0; stroke-opacity: 0.35; stroke-width: 0.6"/>
     </g>
     <g id="line2d_43">
      <g>
       <use xlink:href="#m3907f962ad" x="34.126158" y="186.756482" style="stroke: #000000; stroke-width: 0.6"/>
      </g>
     </g>
    </g>
    <g id="ytick_18">
     <g id="line2d_44">
      <path d="M 34.126158 182.703441 
L 269.2 182.703441 
" clip-path="url(#pca625b54e2)" style="fill: none; stroke-dasharray: 2.22,0.96; stroke-dashoffset: 0; stroke: #b0b0b0; stroke-opacity: 0.35; stroke-width: 0.6"/>
     </g>
     <g id="line2d_45">
      <g>
       <use xlink:href="#m3907f962ad" x="34.126158" y="182.703441" style="stroke: #000000; stroke-width: 0.6"/>
      </g>
     </g>
    </g>
    <g id="ytick_19">
     <g id="line2d_46">
      <path d="M 34.126158 179.276645 
L 269.2 179.276645 
" clip-path="url(#pca625b54e2)" style="fill: none; stroke-dasharray: 2.22,0.96; stroke-dashoffset: 0; stroke: #b0b0b0; stroke-opacity: 0.35; stroke-width: 0.6"/>
     </g>
     <g id="line2d_47">
      <g>
       <use xlink:href="#m3907f962ad" x="34.126158" y="179.276645" style="stroke: #000000; stroke-width: 0.6"/>
      </g>
     </g>
    </g>
    <g id="ytick_20">
     <g id="line2d_48">
      <path d="M 34.126158 176.308219 
L 269.2 176.308219 
" clip-path="url(#pca625b54e2)" style="fill: none; stroke-dasharray: 2.22,0.96; stroke-dashoffset: 0; stroke: #b0b0b0; stroke-opacity: 0.35; stroke-width: 0.6"/>
     </g>
     <g id="line2d_49">
      <g>
       <use xlink:href="#m3907f962ad" x="34.126158" y="176.308219" style="stroke: #000000; stroke-width: 0.6"/>
      </g>
     </g>
    </g>
    <g id="ytick_21">
     <g id="line2d_50">
      <path d="M 34.126158 173.689881 
L 269.2 173.689881 
" clip-path="url(#pca625b54e2)" style="fill: none; stroke-dasharray: 2.22,0.96; stroke-dashoffset: 0; stroke: #b0b0b0; stroke-opacity: 0.35; stroke-width: 0.6"/>
     </g>
     <g id="line2d_51">
      <g>
       <use xlink:href="#m3907f962ad" x="34.126158" y="173.689881" style="stroke: #000000; stroke-width: 0.6"/>
      </g>
     </g>
    </g>
    <g id="ytick_22">
     <g id="line2d_52">
      <path d="M 34.126158 155.938915 
L 269.2 155.938915 
" clip-path="url(#pca625b54e2)" style="fill: none; stroke-dasharray: 2.22,0.96; stroke-dashoffset: 0; stroke: #b0b0b0; stroke-opacity: 0.35; stroke-width: 0.6"/>
     </g>
     <g id="line2d_53">
      <g>
       <use xlink:href="#m3907f962ad" x="34.126158" y="155.938915" style="stroke: #000000; stroke-width: 0.6"/>
      </g>
     </g>
    </g>
    <g id="ytick_23">
     <g id="line2d_54">
      <path d="M 34.126158 146.925354 
L 269.2 146.925354 
" clip-path="url(#pca625b54e2)" style="fill: none; stroke-dasharray: 2.22,0.96; stroke-dashoffset: 0; stroke: #b0b0b0; stroke-opacity: 0.35; stroke-width: 0.6"/>
     </g>
     <g id="line2d_55">
      <g>
       <use xlink:href="#m3907f962ad" x="34.126158" y="146.925354" style="stroke: #000000; stroke-width: 0.6"/>
      </g>
     </g>
    </g>
    <g id="ytick_24">
     <g id="line2d_56">
      <path d="M 34.126158 140.530132 
L 269.2 140.530132 
" clip-path="url(#pca625b54e2)" style="fill: none; stroke-dasharray: 2.22,0.96; stroke-dashoffset: 0; stroke: #b0b0b0; stroke-opacity: 0.35; stroke-width: 0.6"/>
     </g>
     <g id="line2d_57">
      <g>
       <use xlink:href="#m3907f962ad" x="34.126158" y="140.530132" style="stroke: #000000; stroke-width: 0.6"/>
      </g>
     </g>
    </g>
    <g id="ytick_25">
     <g id="line2d_58">
      <path d="M 34.126158 135.569611 
L 269.2 135.569611 
" clip-path="url(#pca625b54e2)" style="fill: none; stroke-dasharray: 2.22,0.96; stroke-dashoffset: 0; stroke: #b0b0b0; stroke-opacity: 0.35; stroke-width: 0.6"/>
     </g>
     <g id="line2d_59">
      <g>
       <use xlink:href="#m3907f962ad" x="34.126158" y="135.569611" style="stroke: #000000; stroke-width: 0.6"/>
      </g>
     </g>
    </g>
    <g id="ytick_26">
     <g id="line2d_60">
      <path d="M 34.126158 131.516571 
L 269.2 131.516571 
" clip-path="url(#pca625b54e2)" style="fill: none; stroke-dasharray: 2.22,0.96; stroke-dashoffset: 0; stroke: #b0b0b0; stroke-opacity: 0.35; stroke-width: 0.6"/>
     </g>
     <g id="line2d_61">
      <g>
       <use xlink:href="#m3907f962ad" x="34.126158" y="131.516571" style="stroke: #000000; stroke-width: 0.6"/>
      </g>
     </g>
    </g>
    <g id="ytick_27">
     <g id="line2d_62">
      <path d="M 34.126158 128.089774 
L 269.2 128.089774 
" clip-path="url(#pca625b54e2)" style="fill: none; stroke-dasharray: 2.22,0.96; stroke-dashoffset: 0; stroke: #b0b0b0; stroke-opacity: 0.35; stroke-width: 0.6"/>
     </g>
     <g id="line2d_63">
      <g>
       <use xlink:href="#m3907f962ad" x="34.126158" y="128.089774" style="stroke: #000000; stroke-width: 0.6"/>
      </g>
     </g>
    </g>
    <g id="ytick_28">
     <g id="line2d_64">
      <path d="M 34.126158 125.121348 
L 269.2 125.121348 
" clip-path="url(#pca625b54e2)" style="fill: none; stroke-dasharray: 2.22,0.96; stroke-dashoffset: 0; stroke: #b0b0b0; stroke-opacity: 0.35; stroke-width: 0.6"/>
     </g>
     <g id="line2d_65">
      <g>
       <use xlink:href="#m3907f962ad" x="34.126158" y="125.121348" style="stroke: #000000; stroke-width: 0.6"/>
      </g>
     </g>
    </g>
    <g id="ytick_29">
     <g id="line2d_66">
      <path d="M 34.126158 122.503011 
L 269.2 122.503011 
" clip-path="url(#pca625b54e2)" style="fill: none; stroke-dasharray: 2.22,0.96; stroke-dashoffset: 0; stroke: #b0b0b0; stroke-opacity: 0.35; stroke-width: 0.6"/>
     </g>
     <g id="line2d_67">
      <g>
       <use xlink:href="#m3907f962ad" x="34.126158" y="122.503011" style="stroke: #000000; stroke-width: 0.6"/>
      </g>
     </g>
    </g>
    <g id="ytick_30">
     <g id="line2d_68">
      <path d="M 34.126158 104.752045 
L 269.2 104.752045 
" clip-path="url(#pca625b54e2)" style="fill: none; stroke-dasharray: 2.22,0.96; stroke-dashoffset: 0; stroke: #b0b0b0; stroke-opacity: 0.35; stroke-width: 0.6"/>
     </g>
     <g id="line2d_69">
      <g>
       <use xlink:href="#m3907f962ad" x="34.126158" y="104.752045" style="stroke: #000000; stroke-width: 0.6"/>
      </g>
     </g>
    </g>
    <g id="ytick_31">
     <g id="line2d_70">
      <path d="M 34.126158 95.738484 
L 269.2 95.738484 
" clip-path="url(#pca625b54e2)" style="fill: none; stroke-dasharray: 2.22,0.96; stroke-dashoffset: 0; stroke: #b0b0b0; stroke-opacity: 0.35; stroke-width: 0.6"/>
     </g>
     <g id="line2d_71">
      <g>
       <use xlink:href="#m3907f962ad" x="34.126158" y="95.738484" style="stroke: #000000; stroke-width: 0.6"/>
      </g>
     </g>
    </g>
    <g id="ytick_32">
     <g id="line2d_72">
      <path d="M 34.126158 89.343261 
L 269.2 89.343261 
" clip-path="url(#pca625b54e2)" style="fill: none; stroke-dasharray: 2.22,0.96; stroke-dashoffset: 0; stroke: #b0b0b0; stroke-opacity: 0.35; stroke-width: 0.6"/>
     </g>
     <g id="line2d_73">
      <g>
       <use xlink:href="#m3907f962ad" x="34.126158" y="89.343261" style="stroke: #000000; stroke-width: 0.6"/>
      </g>
     </g>
    </g>
    <g id="ytick_33">
     <g id="line2d_74">
      <path d="M 34.126158 84.382741 
L 269.2 84.382741 
" clip-path="url(#pca625b54e2)" style="fill: none; stroke-dasharray: 2.22,0.96; stroke-dashoffset: 0; stroke: #b0b0b0; stroke-opacity: 0.35; stroke-width: 0.6"/>
     </g>
     <g id="line2d_75">
      <g>
       <use xlink:href="#m3907f962ad" x="34.126158" y="84.382741" style="stroke: #000000; stroke-width: 0.6"/>
      </g>
     </g>
    </g>
    <g id="ytick_34">
     <g id="line2d_76">
      <path d="M 34.126158 80.329701 
L 269.2 80.329701 
" clip-path="url(#pca625b54e2)" style="fill: none; stroke-dasharray: 2.22,0.96; stroke-dashoffset: 0; stroke: #b0b0b0; stroke-opacity: 0.35; stroke-width: 0.6"/>
     </g>
     <g id="line2d_77">
      <g>
       <use xlink:href="#m3907f962ad" x="34.126158" y="80.329701" style="stroke: #000000; stroke-width: 0.6"/>
      </g>
     </g>
    </g>
    <g id="ytick_35">
     <g id="line2d_78">
      <path d="M 34.126158 76.902904 
L 269.2 76.902904 
" clip-path="url(#pca625b54e2)" style="fill: none; stroke-dasharray: 2.22,0.96; stroke-dashoffset: 0; stroke: #b0b0b0; stroke-opacity: 0.35; stroke-width: 0.6"/>
     </g>
     <g id="line2d_79">
      <g>
       <use xlink:href="#m3907f962ad" x="34.126158" y="76.902904" style="stroke: #000000; stroke-width: 0.6"/>
      </g>
     </g>
    </g>
    <g id="ytick_36">
     <g id="line2d_80">
      <path d="M 34.126158 73.934478 
L 269.2 73.934478 
" clip-path="url(#pca625b54e2)" style="fill: none; stroke-dasharray: 2.22,0.96; stroke-dashoffset: 0; stroke: #b0b0b0; stroke-opacity: 0.35; stroke-width: 0.6"/>
     </g>
     <g id="line2d_81">
      <g>
       <use xlink:href="#m3907f962ad" x="34.126158" y="73.934478" style="stroke: #000000; stroke-width: 0.6"/>
      </g>
     </g>
    </g>
    <g id="ytick_37">
     <g id="line2d_82">
      <path d="M 34.126158 71.31614 
L 269.2 71.31614 
" clip-path="url(#pca625b54e2)" style="fill: none; stroke-dasharray: 2.22,0.96; stroke-dashoffset: 0; stroke: #b0b0b0; stroke-opacity: 0.35; stroke-width: 0.6"/>
     </g>
     <g id="line2d_83">
      <g>
       <use xlink:href="#m3907f962ad" x="34.126158" y="71.31614" style="stroke: #000000; stroke-width: 0.6"/>
      </g>
     </g>
    </g>
    <g id="ytick_38">
     <g id="line2d_84">
      <path d="M 34.126158 53.565174 
L 269.2 53.565174 
" clip-path="url(#pca625b54e2)" style="fill: none; stroke-dasharray: 2.22,0.96; stroke-dashoffset: 0; stroke: #b0b0b0; stroke-opacity: 0.35; stroke-width: 0.6"/>
     </g>
     <g id="line2d_85">
      <g>
       <use xlink:href="#m3907f962ad" x="34.126158" y="53.565174" style="stroke: #000000; stroke-width: 0.6"/>
      </g>
     </g>
    </g>
    <g id="ytick_39">
     <g id="line2d_86">
      <path d="M 34.126158 44.551614 
L 269.2 44.551614 
" clip-path="url(#pca625b54e2)" style="fill: none; stroke-dasharray: 2.22,0.96; stroke-dashoffset: 0; stroke: #b0b0b0; stroke-opacity: 0.35; stroke-width: 0.6"/>
     </g>
     <g id="line2d_87">
      <g>
       <use xlink:href="#m3907f962ad" x="34.126158" y="44.551614" style="stroke: #000000; stroke-width: 0.6"/>
      </g>
     </g>
    </g>
    <g id="ytick_40">
     <g id="line2d_88">
      <path d="M 34.126158 38.156391 
L 269.2 38.156391 
" clip-path="url(#pca625b54e2)" style="fill: none; stroke-dasharray: 2.22,0.96; stroke-dashoffset: 0; stroke: #b0b0b0; stroke-opacity: 0.35; stroke-width: 0.6"/>
     </g>
     <g id="line2d_89">
      <g>
       <use xlink:href="#m3907f962ad" x="34.126158" y="38.156391" style="stroke: #000000; stroke-width: 0.6"/>
      </g>
     </g>
    </g>
    <g id="ytick_41">
     <g id="line2d_90">
      <path d="M 34.126158 33.195871 
L 269.2 33.195871 
" clip-path="url(#pca625b54e2)" style="fill: none; stroke-dasharray: 2.22,0.96; stroke-dashoffset: 0; stroke: #b0b0b0; stroke-opacity: 0.35; stroke-width: 0.6"/>
     </g>
     <g id="line2d_91">
      <g>
       <use xlink:href="#m3907f962ad" x="34.126158" y="33.195871" style="stroke: #000000; stroke-width: 0.6"/>
      </g>
     </g>
    </g>
    <g id="ytick_42">
     <g id="line2d_92">
      <path d="M 34.126158 29.14283 
L 269.2 29.14283 
" clip-path="url(#pca625b54e2)" style="fill: none; stroke-dasharray: 2.22,0.96; stroke-dashoffset: 0; stroke: #b0b0b0; stroke-opacity: 0.35; stroke-width: 0.6"/>
     </g>
     <g id="line2d_93">
      <g>
       <use xlink:href="#m3907f962ad" x="34.126158" y="29.14283" style="stroke: #000000; stroke-width: 0.6"/>
      </g>
     </g>
    </g>
    <g id="ytick_43">
     <g id="line2d_94">
      <path d="M 34.126158 25.716034 
L 269.2 25.716034 
" clip-path="url(#pca625b54e2)" style="fill: none; stroke-dasharray: 2.22,0.96; stroke-dashoffset: 0; stroke: #b0b0b0; stroke-opacity: 0.35; stroke-width: 0.6"/>
     </g>
     <g id="line2d_95">
      <g>
       <use xlink:href="#m3907f962ad" x="34.126158" y="25.716034" style="stroke: #000000; stroke-width: 0.6"/>
      </g>
     </g>
    </g>
    <g id="ytick_44">
     <g id="line2d_96">
      <path d="M 34.126158 22.747607 
L 269.2 22.747607 
" clip-path="url(#pca625b54e2)" style="fill: none; stroke-dasharray: 2.22,0.96; stroke-dashoffset: 0; stroke: #b0b0b0; stroke-opacity: 0.35; stroke-width: 0.6"/>
     </g>
     <g id="line2d_97">
      <g>
       <use xlink:href="#m3907f962ad" x="34.126158" y="22.747607" style="stroke: #000000; stroke-width: 0.6"/>
      </g>
     </g>
    </g>
    <g id="ytick_45">
     <g id="line2d_98">
      <path d="M 34.126158 20.12927 
L 269.2 20.12927 
" clip-path="url(#pca625b54e2)" style="fill: none; stroke-dasharray: 2.22,0.96; stroke-dashoffset: 0; stroke: #b0b0b0; stroke-opacity: 0.35; stroke-width: 0.6"/>
     </g>
     <g id="line2d_99">
      <g>
       <use xlink:href="#m3907f962ad" x="34.126158" y="20.12927" style="stroke: #000000; stroke-width: 0.6"/>
      </g>
     </g>
    </g>
   </g>
   <g id="line2d_100">
    <path d="M 44.811333 195.461819 
L 75.340403 171.661609 
L 105.869474 163.125191 
L 136.398544 155.197407 
L 166.927614 147.773693 
" clip-path="url(#pca625b54e2)" style="fill: none; stroke: #1d3557; stroke-width: 2; stroke-linecap: square"/>
   </g>
   <g id="line2d_101">
    <path d="M 44.811333 206.024393 
L 75.340403 189.266966 
L 105.869474 177.818273 
L 136.398544 173.830131 
L 166.927614 165.809645 
L 197.456685 157.924241 
L 227.985755 153.235456 
L 258.514825 139.96965 
" clip-path="url(#pca625b54e2)" style="fill: none; stroke: #00afb9; stroke-width: 2; stroke-linecap: square"/>
   </g>
   <g id="line2d_102">
    <path d="M 44.811333 204.55437 
L 75.340403 189.151066 
L 105.869474 179.437118 
L 136.398544 173.747682 
L 166.927614 165.437648 
L 197.456685 156.023868 
L 227.985755 148.933895 
L 258.514825 137.57853 
" clip-path="url(#pca625b54e2)" style="fill: none; stroke: #fed9b7; stroke-width: 2; stroke-linecap: square"/>
   </g>
   <g id="patch_3">
    <path d="M 34.126158 272.12 
L 34.126158 14.234247 
" style="fill: none; stroke: #000000; stroke-width: 0.8; stroke-linejoin: miter; stroke-linecap: square"/>
   </g>
   <g id="patch_4">
    <path d="M 269.2 272.12 
L 269.2 14.234247 
" style="fill: none; stroke: #000000; stroke-width: 0.8; stroke-linejoin: miter; stroke-linecap: square"/>
   </g>
   <g id="patch_5">
    <path d="M 34.126158 272.12 
L 269.2 272.12 
" style="fill: none; stroke: #000000; stroke-width: 0.8; stroke-linejoin: miter; stroke-linecap: square"/>
   </g>
   <g id="patch_6">
    <path d="M 34.126158 14.234247 
L 269.2 14.234247 
" style="fill: none; stroke: #000000; stroke-width: 0.8; stroke-linejoin: miter; stroke-linecap: square"/>
   </g>
   <g id="line2d_103">
    <path d="M 44.811333 205.524338 
L 75.340403 186.664286 
L 105.869474 178.362252 
L 136.398544 177.463326 
L 166.927614 169.94644 
L 197.456685 156.937699 
L 227.985755 150.367327 
L 258.514825 142.269435 
" clip-path="url(#pca625b54e2)" style="fill: none; stroke: #0081a7; stroke-width: 2; stroke-linecap: square"/>
   </g>
   <g id="line2d_104">
    <path d="M 44.811333 155.051215 
L 75.340403 152.165469 
L 105.869474 141.847659 
L 136.398544 125.096138 
L 166.927614 93.036613 
L 197.456685 74.097752 
L 227.985755 22.443073 
L 258.514825 16.353009 
" clip-path="url(#pca625b54e2)" style="fill: none; stroke: #000000; stroke-width: 2; stroke-linecap: square"/>
   </g>
   <g id="legend_1">
    <g id="line2d_105">
     <path d="M 43.126158 26.921747 
L 50.626158 26.921747 
L 58.126158 26.921747 
" style="fill: none; stroke: #0081a7; stroke-width: 2; stroke-linecap: square"/>
    </g>
    <g id="text_10">
     <!-- ph1 -->
     <g transform="translate(66.126158 30.421747) scale(0.1 -0.1)">
      <defs>
       <path id="ArialMT-70" d="M 422 -1272 
L 422 3319 
L 934 3319 
L 934 2888 
Q 1116 3141 1344 3267 
Q 1572 3394 1897 3394 
Q 2322 3394 2647 3175 
Q 2972 2956 3137 2557 
Q 3303 2159 3303 1684 
Q 3303 1175 3120 767 
Q 2938 359 2589 142 
Q 2241 -75 1856 -75 
Q 1575 -75 1351 44 
Q 1128 163 984 344 
L 984 -1272 
L 422 -1272 
z
M 931 1641 
Q 931 1000 1190 694 
Q 1450 388 1819 388 
Q 2194 388 2461 705 
Q 2728 1022 2728 1688 
Q 2728 2322 2467 2637 
Q 2206 2953 1844 2953 
Q 1484 2953 1207 2617 
Q 931 2281 931 1641 
z
" transform="scale(0.015625)"/>
       <path id="ArialMT-68" d="M 422 0 
L 422 4581 
L 984 4581 
L 984 2938 
Q 1378 3394 1978 3394 
Q 2347 3394 2619 3248 
Q 2891 3103 3008 2847 
Q 3125 2591 3125 2103 
L 3125 0 
L 2563 0 
L 2563 2103 
Q 2563 2525 2380 2717 
Q 2197 2909 1863 2909 
Q 1613 2909 1392 2779 
Q 1172 2650 1078 2428 
Q 984 2206 984 1816 
L 984 0 
L 422 0 
z
" transform="scale(0.015625)"/>
      </defs>
      <use xlink:href="#ArialMT-70"/>
      <use xlink:href="#ArialMT-68" transform="translate(55.615234 0)"/>
      <use xlink:href="#ArialMT-31" transform="translate(111.230469 0)"/>
     </g>
    </g>
    <g id="line2d_106">
     <path d="M 43.126158 39.096747 
L 50.626158 39.096747 
L 58.126158 39.096747 
" style="fill: none; stroke: #1d3557; stroke-width: 2; stroke-linecap: square"/>
    </g>
    <g id="text_11">
     <!-- optimized 1ph -->
     <g transform="translate(66.126158 42.596747) scale(0.1 -0.1)">
      <defs>
       <path id="ArialMT-6f" d="M 213 1659 
Q 213 2581 725 3025 
Q 1153 3394 1769 3394 
Q 2453 3394 2887 2945 
Q 3322 2497 3322 1706 
Q 3322 1066 3130 698 
Q 2938 331 2570 128 
Q 2203 -75 1769 -75 
Q 1072 -75 642 372 
Q 213 819 213 1659 
z
M 791 1659 
Q 791 1022 1069 705 
Q 1347 388 1769 388 
Q 2188 388 2466 706 
Q 2744 1025 2744 1678 
Q 2744 2294 2464 2611 
Q 2184 2928 1769 2928 
Q 1347 2928 1069 2612 
Q 791 2297 791 1659 
z
" transform="scale(0.015625)"/>
       <path id="ArialMT-74" d="M 1650 503 
L 1731 6 
Q 1494 -44 1306 -44 
Q 1000 -44 831 53 
Q 663 150 594 308 
Q 525 466 525 972 
L 525 2881 
L 113 2881 
L 113 3319 
L 525 3319 
L 525 4141 
L 1084 4478 
L 1084 3319 
L 1650 3319 
L 1650 2881 
L 1084 2881 
L 1084 941 
Q 1084 700 1114 631 
Q 1144 563 1211 522 
Q 1278 481 1403 481 
Q 1497 481 1650 503 
z
" transform="scale(0.015625)"/>
       <path id="ArialMT-69" d="M 425 3934 
L 425 4581 
L 988 4581 
L 988 3934 
L 425 3934 
z
M 425 0 
L 425 3319 
L 988 3319 
L 988 0 
L 425 0 
z
" transform="scale(0.015625)"/>
       <path id="ArialMT-6d" d="M 422 0 
L 422 3319 
L 925 3319 
L 925 2853 
Q 1081 3097 1340 3245 
Q 1600 3394 1931 3394 
Q 2300 3394 2536 3241 
Q 2772 3088 2869 2813 
Q 3263 3394 3894 3394 
Q 4388 3394 4653 3120 
Q 4919 2847 4919 2278 
L 4919 0 
L 4359 0 
L 4359 2091 
Q 4359 2428 4304 2576 
Q 4250 2725 4106 2815 
Q 3963 2906 3769 2906 
Q 3419 2906 3187 2673 
Q 2956 2441 2956 1928 
L 2956 0 
L 2394 0 
L 2394 2156 
Q 2394 2531 2256 2718 
Q 2119 2906 1806 2906 
Q 1569 2906 1367 2781 
Q 1166 2656 1075 2415 
Q 984 2175 984 1722 
L 984 0 
L 422 0 
z
" transform="scale(0.015625)"/>
       <path id="ArialMT-7a" d="M 125 0 
L 125 456 
L 2238 2881 
Q 1878 2863 1603 2863 
L 250 2863 
L 250 3319 
L 2963 3319 
L 2963 2947 
L 1166 841 
L 819 456 
Q 1197 484 1528 484 
L 3063 484 
L 3063 0 
L 125 0 
z
" transform="scale(0.015625)"/>
       <path id="ArialMT-65" d="M 2694 1069 
L 3275 997 
Q 3138 488 2766 206 
Q 2394 -75 1816 -75 
Q 1088 -75 661 373 
Q 234 822 234 1631 
Q 234 2469 665 2931 
Q 1097 3394 1784 3394 
Q 2450 3394 2872 2941 
Q 3294 2488 3294 1666 
Q 3294 1616 3291 1516 
L 816 1516 
Q 847 969 1125 678 
Q 1403 388 1819 388 
Q 2128 388 2347 550 
Q 2566 713 2694 1069 
z
M 847 1978 
L 2700 1978 
Q 2663 2397 2488 2606 
Q 2219 2931 1791 2931 
Q 1403 2931 1139 2672 
Q 875 2413 847 1978 
z
" transform="scale(0.015625)"/>
       <path id="ArialMT-64" d="M 2575 0 
L 2575 419 
Q 2259 -75 1647 -75 
Q 1250 -75 917 144 
Q 584 363 401 755 
Q 219 1147 219 1656 
Q 219 2153 384 2558 
Q 550 2963 881 3178 
Q 1213 3394 1622 3394 
Q 1922 3394 2156 3267 
Q 2391 3141 2538 2938 
L 2538 4581 
L 3097 4581 
L 3097 0 
L 2575 0 
z
M 797 1656 
Q 797 1019 1065 703 
Q 1334 388 1700 388 
Q 2069 388 2326 689 
Q 2584 991 2584 1609 
Q 2584 2291 2321 2609 
Q 2059 2928 1675 2928 
Q 1300 2928 1048 2622 
Q 797 2316 797 1656 
z
" transform="scale(0.015625)"/>
       <path id="ArialMT-20" transform="scale(0.015625)"/>
      </defs>
      <use xlink:href="#ArialMT-6f"/>
      <use xlink:href="#ArialMT-70" transform="translate(55.615234 0)"/>
      <use xlink:href="#ArialMT-74" transform="translate(111.230469 0)"/>
      <use xlink:href="#ArialMT-69" transform="translate(139.013672 0)"/>
      <use xlink:href="#ArialMT-6d" transform="translate(161.230469 0)"/>
      <use xlink:href="#ArialMT-69" transform="translate(244.53125 0)"/>
      <use xlink:href="#ArialMT-7a" transform="translate(266.748047 0)"/>
      <use xlink:href="#ArialMT-65" transform="translate(316.748047 0)"/>
      <use xlink:href="#ArialMT-64" transform="translate(372.363281 0)"/>
      <use xlink:href="#ArialMT-20" transform="translate(427.978516 0)"/>
      <use xlink:href="#ArialMT-31" transform="translate(455.761719 0)"/>
      <use xlink:href="#ArialMT-70" transform="translate(511.376953 0)"/>
      <use xlink:href="#ArialMT-68" transform="translate(566.992188 0)"/>
     </g>
    </g>
    <g id="line2d_107">
     <path d="M 43.126158 51.271747 
L 50.626158 51.271747 
L 58.126158 51.271747 
" style="fill: none; stroke: #00afb9; stroke-width: 2; stroke-linecap: square"/>
    </g>
    <g id="text_12">
     <!-- ph1_random -->
     <g transform="translate(66.126158 54.771747) scale(0.1 -0.1)">
      <defs>
       <path id="ArialMT-5f" d="M -97 -1272 
L -97 -866 
L 3631 -866 
L 3631 -1272 
L -97 -1272 
z
" transform="scale(0.015625)"/>
       <path id="ArialMT-72" d="M 416 0 
L 416 3319 
L 922 3319 
L 922 2816 
Q 1116 3169 1280 3281 
Q 1444 3394 1641 3394 
Q 1925 3394 2219 3213 
L 2025 2691 
Q 1819 2813 1613 2813 
Q 1428 2813 1281 2702 
Q 1134 2591 1072 2394 
Q 978 2094 978 1738 
L 978 0 
L 416 0 
z
" transform="scale(0.015625)"/>
       <path id="ArialMT-61" d="M 2588 409 
Q 2275 144 1986 34 
Q 1697 -75 1366 -75 
Q 819 -75 525 192 
Q 231 459 231 875 
Q 231 1119 342 1320 
Q 453 1522 633 1644 
Q 813 1766 1038 1828 
Q 1203 1872 1538 1913 
Q 2219 1994 2541 2106 
Q 2544 2222 2544 2253 
Q 2544 2597 2384 2738 
Q 2169 2928 1744 2928 
Q 1347 2928 1158 2789 
Q 969 2650 878 2297 
L 328 2372 
Q 403 2725 575 2942 
Q 747 3159 1072 3276 
Q 1397 3394 1825 3394 
Q 2250 3394 2515 3294 
Q 2781 3194 2906 3042 
Q 3031 2891 3081 2659 
Q 3109 2516 3109 2141 
L 3109 1391 
Q 3109 606 3145 398 
Q 3181 191 3288 0 
L 2700 0 
Q 2613 175 2588 409 
z
M 2541 1666 
Q 2234 1541 1622 1453 
Q 1275 1403 1131 1340 
Q 988 1278 909 1158 
Q 831 1038 831 891 
Q 831 666 1001 516 
Q 1172 366 1500 366 
Q 1825 366 2078 508 
Q 2331 650 2450 897 
Q 2541 1088 2541 1459 
L 2541 1666 
z
" transform="scale(0.015625)"/>
       <path id="ArialMT-6e" d="M 422 0 
L 422 3319 
L 928 3319 
L 928 2847 
Q 1294 3394 1984 3394 
Q 2284 3394 2536 3286 
Q 2788 3178 2913 3003 
Q 3038 2828 3088 2588 
Q 3119 2431 3119 2041 
L 3119 0 
L 2556 0 
L 2556 2019 
Q 2556 2363 2490 2533 
Q 2425 2703 2258 2804 
Q 2091 2906 1866 2906 
Q 1506 2906 1245 2678 
Q 984 2450 984 1813 
L 984 0 
L 422 0 
z
" transform="scale(0.015625)"/>
      </defs>
      <use xlink:href="#ArialMT-70"/>
      <use xlink:href="#ArialMT-68" transform="translate(55.615234 0)"/>
      <use xlink:href="#ArialMT-31" transform="translate(111.230469 0)"/>
      <use xlink:href="#ArialMT-5f" transform="translate(166.845703 0)"/>
      <use xlink:href="#ArialMT-72" transform="translate(222.460938 0)"/>
      <use xlink:href="#ArialMT-61" transform="translate(255.761719 0)"/>
      <use xlink:href="#ArialMT-6e" transform="translate(311.376953 0)"/>
      <use xlink:href="#ArialMT-64" transform="translate(366.992188 0)"/>
      <use xlink:href="#ArialMT-6f" transform="translate(422.607422 0)"/>
      <use xlink:href="#ArialMT-6d" transform="translate(478.222656 0)"/>
     </g>
    </g>
    <g id="line2d_108">
     <path d="M 43.126158 63.417059 
L 50.626158 63.417059 
L 58.126158 63.417059 
" style="fill: none; stroke: #fed9b7; stroke-width: 2; stroke-linecap: square"/>
    </g>
    <g id="text_13">
     <!-- ph_random -->
     <g transform="translate(66.126158 66.917059) scale(0.1 -0.1)">
      <use xlink:href="#ArialMT-70"/>
      <use xlink:href="#ArialMT-68" transform="translate(55.615234 0)"/>
      <use xlink:href="#ArialMT-5f" transform="translate(111.230469 0)"/>
      <use xlink:href="#ArialMT-72" transform="translate(166.845703 0)"/>
      <use xlink:href="#ArialMT-61" transform="translate(200.146484 0)"/>
      <use xlink:href="#ArialMT-6e" transform="translate(255.761719 0)"/>
      <use xlink:href="#ArialMT-64" transform="translate(311.376953 0)"/>
      <use xlink:href="#ArialMT-6f" transform="translate(366.992188 0)"/>
      <use xlink:href="#ArialMT-6d" transform="translate(422.607422 0)"/>
     </g>
    </g>
    <g id="line2d_109">
     <path d="M 43.126158 75.562372 
L 50.626158 75.562372 
L 58.126158 75.562372 
" style="fill: none; stroke: #f07167; stroke-width: 2; stroke-linecap: square"/>
    </g>
    <g id="text_14">
     <!-- ph_random_phase -->
     <g transform="translate(66.126158 79.062372) scale(0.1 -0.1)">
      <defs>
       <path id="ArialMT-73" d="M 197 991 
L 753 1078 
Q 800 744 1014 566 
Q 1228 388 1613 388 
Q 2000 388 2187 545 
Q 2375 703 2375 916 
Q 2375 1106 2209 1216 
Q 2094 1291 1634 1406 
Q 1016 1563 777 1677 
Q 538 1791 414 1992 
Q 291 2194 291 2438 
Q 291 2659 392 2848 
Q 494 3038 669 3163 
Q 800 3259 1026 3326 
Q 1253 3394 1513 3394 
Q 1903 3394 2198 3281 
Q 2494 3169 2634 2976 
Q 2775 2784 2828 2463 
L 2278 2388 
Q 2241 2644 2061 2787 
Q 1881 2931 1553 2931 
Q 1166 2931 1000 2803 
Q 834 2675 834 2503 
Q 834 2394 903 2306 
Q 972 2216 1119 2156 
Q 1203 2125 1616 2013 
Q 2213 1853 2448 1751 
Q 2684 1650 2818 1456 
Q 2953 1263 2953 975 
Q 2953 694 2789 445 
Q 2625 197 2315 61 
Q 2006 -75 1616 -75 
Q 969 -75 630 194 
Q 291 463 197 991 
z
" transform="scale(0.015625)"/>
      </defs>
      <use xlink:href="#ArialMT-70"/>
      <use xlink:href="#ArialMT-68" transform="translate(55.615234 0)"/>
      <use xlink:href="#ArialMT-5f" transform="translate(111.230469 0)"/>
      <use xlink:href="#ArialMT-72" transform="translate(166.845703 0)"/>
      <use xlink:href="#ArialMT-61" transform="translate(200.146484 0)"/>
      <use xlink:href="#ArialMT-6e" transform="translate(255.761719 0)"/>
      <use xlink:href="#ArialMT-64" transform="translate(311.376953 0)"/>
      <use xlink:href="#ArialMT-6f" transform="translate(366.992188 0)"/>
      <use xlink:href="#ArialMT-6d" transform="translate(422.607422 0)"/>
      <use xlink:href="#ArialMT-5f" transform="translate(505.908203 0)"/>
      <use xlink:href="#ArialMT-70" transform="translate(561.523438 0)"/>
      <use xlink:href="#ArialMT-68" transform="translate(617.138672 0)"/>
      <use xlink:href="#ArialMT-61" transform="translate(672.753906 0)"/>
      <use xlink:href="#ArialMT-73" transform="translate(728.369141 0)"/>
      <use xlink:href="#ArialMT-65" transform="translate(778.369141 0)"/>
     </g>
    </g>
    <g id="line2d_110">
     <path d="M 43.126158 87.829559 
L 50.626158 87.829559 
L 58.126158 87.829559 
" style="fill: none; stroke: #000000; stroke-width: 2; stroke-linecap: square"/>
    </g>
    <g id="text_15">
     <!-- qft -->
     <g transform="translate(66.126158 91.329559) scale(0.1 -0.1)">
      <defs>
       <path id="ArialMT-71" d="M 2538 -1272 
L 2538 353 
Q 2406 169 2170 47 
Q 1934 -75 1669 -75 
Q 1078 -75 651 397 
Q 225 869 225 1691 
Q 225 2191 398 2587 
Q 572 2984 901 3189 
Q 1231 3394 1625 3394 
Q 2241 3394 2594 2875 
L 2594 3319 
L 3100 3319 
L 3100 -1272 
L 2538 -1272 
z
M 803 1669 
Q 803 1028 1072 708 
Q 1341 388 1716 388 
Q 2075 388 2334 692 
Q 2594 997 2594 1619 
Q 2594 2281 2320 2615 
Q 2047 2950 1678 2950 
Q 1313 2950 1058 2639 
Q 803 2328 803 1669 
z
" transform="scale(0.015625)"/>
       <path id="ArialMT-66" d="M 556 0 
L 556 2881 
L 59 2881 
L 59 3319 
L 556 3319 
L 556 3672 
Q 556 4006 616 4169 
Q 697 4388 901 4523 
Q 1106 4659 1475 4659 
Q 1713 4659 2000 4603 
L 1916 4113 
Q 1741 4144 1584 4144 
Q 1328 4144 1222 4034 
Q 1116 3925 1116 3625 
L 1116 3319 
L 1763 3319 
L 1763 2881 
L 1116 2881 
L 1116 0 
L 556 0 
z
" transform="scale(0.015625)"/>
      </defs>
      <use xlink:href="#ArialMT-71"/>
      <use xlink:href="#ArialMT-66" transform="translate(55.615234 0)"/>
      <use xlink:href="#ArialMT-74" transform="translate(83.398438 0)"/>
     </g>
    </g>
   </g>
  </g>
 </g>
 <defs>
  <clipPath id="pca625b54e2">
   <rect x="34.126158" y="14.234247" width="235.073842" height="257.885753"/>
  </clipPath>
 </defs>
</svg>
